<?xml version="1.0" encoding="UTF-8" standalone="no"?>
<svg width="630px" height="630px" viewBox="0 0 630 630" version="1.1" xmlns="http://www.w3.org/2000/svg" xmlns:xlink="http://www.w3.org/1999/xlink">
    <!-- Generator: Sketch 3.8.2 (29753) - http://www.bohemiancoding.com/sketch -->
    <title>js</title>
    <desc>Created with Sketch.</desc>
    <defs></defs>
    <g id="Page-1" stroke="none" stroke-width="1" fill="none" fill-rule="evenodd">
        <g id="js">
            <g id="logo">
                <rect id="background" fill="#F7DF1E" x="0" y="0" width="630" height="630"></rect>
                <path d="M165.65,526.47375 L213.8625,497.29625 C223.16375,513.7875 231.625,527.74 251.92,527.74 C271.37375,527.74 283.63875,520.13025 283.63875,490.53 L283.63875,289.23 L342.8425,289.23 L342.8425,491.3675 C342.8425,552.6875 306.89875,580.59875 254.4575,580.59875 C207.09625,580.59875 179.605,556.07 165.65,526.46875" id="j" fill="#000000"></path>
                <path d="M375,520.13 L423.20625,492.21875 C435.89625,512.9425 452.38875,528.16625 481.5675,528.16625 C506.09875,528.16625 521.74125,515.9015 521.74125,498.985 C521.74125,478.68625 505.6725,471.49625 478.60625,459.65875 L463.80875,453.31125 C421.09375,435.13 392.75875,412.29375 392.75875,364.08375 C392.75875,319.68 426.59,285.84625 479.45375,285.84625 C517.09125,285.84625 544.15625,298.9575 563.6075,333.2125 L517.51125,362.81375 C507.36125,344.63125 496.36875,337.4425 479.45375,337.4425 C462.115,337.4425 451.11875,348.4375 451.11875,362.81375 C451.11875,380.57625 462.115,387.76625 487.48625,398.7625 L502.28625,405.105 C552.61125,426.67375 580.94625,448.6625 580.94625,498.13875 C580.94625,551.42625 539.08,580.60375 482.83625,580.60375 C427.86,580.60375 392.33625,554.38625 375,520.13" id="s" fill="#000000"></path>
                <text id="girls" font-family="ArialRoundedMTBold, Arial Rounded MT Bold, Arial, sans-serif" font-size="200" font-weight="normal" fill="#000000">
                    <tspan x="175" y="213">girls</tspan>
                </text>
            </g>
        </g>
    </g>
</svg>