<?xml version="1.0" encoding="utf-8"?>
<!-- Generator: Adobe Illustrator 18.0.0, SVG Export Plug-In . SVG Version: 6.00 Build 0)  -->
<!DOCTYPE svg PUBLIC "-//W3C//DTD SVG 1.1//EN" "http://www.w3.org/Graphics/SVG/1.1/DTD/svg11.dtd">
<svg version="1.1" id="Layer_1" xmlns="http://www.w3.org/2000/svg" xmlns:xlink="http://www.w3.org/1999/xlink" x="0px" y="0px"
	 viewBox="0 0 630 630" enable-background="new 0 0 630 630" xml:space="preserve">
<title>js</title>
<desc>Created with Sketch.</desc>
<g id="Page-1">
	<g id="js">
		<g id="logo">
			<rect id="background" fill="#F7DF1E" width="630" height="630"/>
			<path id="j" d="M165.6,526.5l48.2-29.2c9.3,16.5,17.8,30.4,38.1,30.4c19.5,0,31.7-7.6,31.7-37.2V289.2h59.2v202.1
				c0,61.3-35.9,89.2-88.4,89.2C207.1,580.6,179.6,556.1,165.6,526.5"/>
			<path id="s" d="M375,520.1l48.2-27.9c12.7,20.7,29.2,35.9,58.4,35.9c24.5,0,40.2-12.3,40.2-29.2c0-20.3-16.1-27.5-43.1-39.3
				l-14.8-6.3c-42.7-18.2-71-41-71-89.2c0-44.4,33.8-78.2,86.7-78.2c37.6,0,64.7,13.1,84.2,47.4l-46.1,29.6
				c-10.1-18.2-21.1-25.4-38.1-25.4c-17.3,0-28.3,11-28.3,25.4c0,17.8,11,25,36.4,35.9l14.8,6.3c50.3,21.6,78.7,43.6,78.7,93
				c0,53.3-41.9,82.5-98.1,82.5C427.9,580.6,392.3,554.4,375,520.1"/>
			<g enable-background="new    ">
				<path d="M286.8,126.6V204c0,8.9-0.9,16.5-2.8,22.9c-1.9,6.4-4.9,11.7-9.1,15.8c-4.2,4.2-9.6,7.3-16.4,9.3c-6.7,2-15.1,3-25.1,3
					c-9.2,0-17.4-1.3-24.6-3.9c-7.2-2.6-12.8-5.9-16.7-10c-3.9-4.1-5.9-8.3-5.9-12.5c0-3.3,1.1-5.9,3.3-8c2.2-2.1,4.9-3.1,8-3.1
					c3.9,0,7.3,1.7,10.3,5.2c1.4,1.8,2.9,3.5,4.4,5.3c1.5,1.8,3.2,3.3,5.1,4.6s4.1,2.2,6.7,2.8c2.6,0.6,5.6,0.9,9,0.9
					c6.9,0,12.3-1,16.1-2.9c3.8-1.9,6.5-4.6,8-8.1c1.5-3.5,2.4-7.1,2.7-11.1c0.3-3.9,0.5-10.3,0.6-19c-4.1,5.7-8.8,10.1-14.2,13.1
					c-5.4,3-11.8,4.5-19.2,4.5c-8.9,0-16.7-2.3-23.4-6.8c-6.7-4.6-11.8-10.9-15.4-19.1c-3.6-8.2-5.4-17.7-5.4-28.4
					c0-8,1.1-15.2,3.3-21.7c2.2-6.4,5.3-11.9,9.3-16.3c4-4.4,8.7-7.8,14-10s11.1-3.4,17.4-3.4c7.6,0,14.1,1.4,19.6,4.3
					c5.5,2.9,10.7,7.4,15.4,13.6v-3.6c0-4.6,1.1-8.2,3.4-10.7c2.3-2.5,5.2-3.8,8.8-3.8c5.1,0,8.6,1.7,10.3,5
					C286,115.4,286.8,120.3,286.8,126.6z M209.6,160.4c0,10.8,2.4,19,7.1,24.5c4.7,5.5,10.8,8.3,18.3,8.3c4.4,0,8.6-1.2,12.5-3.6
					c3.9-2.4,7.1-6,9.6-10.7c2.5-4.8,3.7-10.6,3.7-17.4c0-10.9-2.4-19.3-7.2-25.4s-11.1-9.1-18.9-9.1c-7.6,0-13.7,2.9-18.3,8.7
					C211.9,141.5,209.6,149.7,209.6,160.4z"/>
				<path d="M327.2,94.6c-3.7,0-6.9-1.1-9.5-3.4c-2.6-2.3-4-5.5-4-9.7c0-3.8,1.4-6.9,4.1-9.3c2.7-2.4,5.8-3.7,9.4-3.7
					c3.5,0,6.5,1.1,9.2,3.3c2.7,2.2,4,5.4,4,9.7c0,4.1-1.3,7.3-3.9,9.6C333.9,93.5,330.8,94.6,327.2,94.6z M340.4,122.2v77.1
					c0,5.3-1.3,9.4-3.8,12.1s-5.8,4.1-9.7,4.1s-7.1-1.4-9.5-4.2s-3.7-6.8-3.7-12V123c0-5.3,1.2-9.2,3.7-11.9c2.4-2.7,5.6-4,9.5-4
					s7.1,1.3,9.7,4C339.2,113.7,340.4,117.4,340.4,122.2z"/>
				<path d="M394.4,177v22.3c0,5.4-1.3,9.5-3.8,12.2s-5.8,4.1-9.7,4.1c-3.8,0-7-1.4-9.5-4.1c-2.5-2.7-3.7-6.8-3.7-12.1V125
					c0-12,4.3-18,13-18c4.4,0,7.6,1.4,9.6,4.2c2,2.8,3,6.9,3.2,12.4c3.2-5.5,6.5-9.6,9.8-12.4c3.4-2.8,7.8-4.2,13.4-4.2
					c5.6,0,11,1.4,16.3,4.2c5.3,2.8,7.9,6.5,7.9,11.1c0,3.3-1.1,5.9-3.4,8.1c-2.2,2.1-4.7,3.2-7.3,3.2c-1,0-3.3-0.6-7.1-1.8
					c-3.7-1.2-7-1.8-9.9-1.8c-3.9,0-7.1,1-9.6,3.1c-2.5,2.1-4.4,5.1-5.8,9.1c-1.4,4-2.3,8.8-2.8,14.4
					C394.7,162.2,394.4,169,394.4,177z"/>
				<path d="M452.9,199.2V83.6c0-5.3,1.2-9.4,3.6-12.1c2.4-2.7,5.6-4.1,9.6-4.1c4,0,7.3,1.4,9.8,4.1c2.5,2.7,3.7,6.8,3.7,12.2v115.6
					c0,5.4-1.3,9.5-3.8,12.2c-2.5,2.7-5.7,4.1-9.7,4.1c-3.9,0-7.1-1.4-9.5-4.2S452.9,204.4,452.9,199.2z"/>
				<path d="M593,180.6c0,7.4-1.8,13.7-5.4,18.9c-3.6,5.2-8.9,9.2-15.9,11.9c-7,2.7-15.5,4.1-25.5,4.1c-9.6,0-17.8-1.5-24.6-4.4
					s-11.9-6.6-15.1-11c-3.3-4.4-4.9-8.8-4.9-13.2c0-2.9,1-5.4,3.1-7.5c2.1-2.1,4.7-3.1,7.9-3.1c2.8,0,4.9,0.7,6.4,2.1
					c1.5,1.4,2.9,3.3,4.3,5.8c2.7,4.8,6,8.3,9.8,10.6s9,3.5,15.6,3.5c5.3,0,9.7-1.2,13.1-3.6c3.4-2.4,5.1-5.1,5.1-8.2
					c0-4.7-1.8-8.1-5.3-10.3c-3.5-2.1-9.4-4.2-17.5-6.2c-9.2-2.3-16.7-4.7-22.4-7.2c-5.8-2.5-10.4-5.8-13.8-9.9
					c-3.5-4.1-5.2-9.1-5.2-15.1c0-5.3,1.6-10.4,4.8-15.1c3.2-4.8,7.9-8.5,14.1-11.4c6.2-2.8,13.7-4.2,22.5-4.2
					c6.9,0,13.1,0.7,18.6,2.1c5.5,1.4,10.1,3.4,13.8,5.8c3.7,2.4,6.5,5.1,8.4,8c1.9,2.9,2.9,5.8,2.9,8.6c0,3.1-1,5.6-3.1,7.5
					s-5,2.9-8.7,2.9c-2.7,0-5.1-0.8-7-2.3c-1.9-1.6-4.1-3.9-6.6-7c-2-2.6-4.4-4.7-7.1-6.2s-6.4-2.3-11.1-2.3c-4.8,0-8.8,1-12,3.1
					c-3.2,2.1-4.8,4.6-4.8,7.7c0,2.8,1.2,5.1,3.5,6.9c2.3,1.8,5.5,3.3,9.5,4.4c4,1.2,9.4,2.6,16.4,4.3c8.3,2,15,4.4,20.3,7.2
					c5.2,2.8,9.2,6.1,11.9,9.9C591.6,171.3,593,175.7,593,180.6z"/>
			</g>
		</g>
	</g>
</g>
</svg>
